<?xml version="1.0" standalone="no"?>
<!DOCTYPE svg PUBLIC "-//W3C//DTD SVG 20010904//EN"
 "http://www.w3.org/TR/2001/REC-SVG-20010904/DTD/svg10.dtd">
<svg version="1.0" xmlns="http://www.w3.org/2000/svg"
 width="734.000000pt" height="424.000000pt" viewBox="0 0 734.000000 424.000000"
 preserveAspectRatio="xMidYMid meet">

<g transform="translate(0.000000,424.000000) scale(0.100000,-0.100000)"
fill="#000000" stroke="none">
<path d="M4350 3880 c-30 -5 -96 -24 -146 -43 -132 -51 -823 -328 -934 -375
-52 -22 -171 -73 -265 -112 -303 -127 -778 -337 -1085 -477 -459 -211 -1360
-646 -1360 -658 0 -3 17 2 37 11 21 9 65 26 98 39 33 13 105 42 160 65 106 44
673 277 1135 465 151 62 338 138 415 170 206 84 264 108 660 269 198 81 396
162 440 181 44 18 181 75 305 125 124 51 290 119 370 152 96 39 169 62 215 68
320 42 822 -61 1310 -271 153 -65 163 -71 225 -136 63 -66 148 -198 136 -211
-4 -3 -28 15 -54 40 -230 224 -824 408 -1442 447 -85 6 -155 9 -157 8 -1 -1
14 -54 33 -117 189 -619 350 -1265 386 -1554 l12 -99 81 -37 c169 -78 460
-158 657 -179 123 -14 338 -14 448 -1 166 20 450 107 517 158 l23 17 -21 110
c-100 539 -265 1058 -421 1332 -123 216 -220 291 -508 394 -423 150 -1037 257
-1270 219z"/>
<path d="M4055 3534 c-33 -14 -118 -49 -190 -79 -71 -29 -200 -82 -285 -118
-85 -35 -229 -95 -320 -132 -227 -93 -516 -212 -570 -235 -25 -11 -196 -82
-380 -159 -768 -319 -1728 -737 -1717 -748 2 -2 98 33 213 78 115 44 414 159
664 254 250 96 595 228 765 293 359 139 1156 444 1623 623 177 67 322 128 322
135 0 23 -43 114 -54 114 -6 -1 -38 -12 -71 -26z"/>
<path d="M3895 3196 c-304 -114 -559 -208 -1210 -446 -845 -309 -1470 -550
-1875 -723 -312 -134 -358 -159 -156 -87 61 21 295 103 521 181 226 78 565
195 755 261 190 66 422 146 515 178 94 32 274 95 400 139 127 43 493 170 815
282 322 111 587 204 589 206 3 2 -8 30 -25 63 l-29 59 -300 -113z"/>
<path d="M4040 2974 c-118 -40 -429 -141 -690 -225 -1551 -493 -1859 -596
-2345 -786 -183 -71 -526 -215 -523 -219 2 -1 154 44 338 100 184 57 470 145
635 196 165 50 377 116 470 145 94 30 193 60 220 68 28 8 381 117 785 242
1096 338 1385 427 1387 429 6 5 -44 126 -52 125 -5 0 -107 -34 -225 -75z"/>
<path d="M4125 2729 c-189 -59 -660 -195 -1505 -434 -577 -163 -768 -221
-1210 -366 -406 -133 -936 -330 -959 -356 -7 -7 -33 -14 344 91 314 88 1191
332 1475 411 85 24 304 84 485 135 182 50 425 118 540 150 116 32 363 101 550
153 187 52 386 107 443 122 56 15 102 33 102 39 0 28 -45 116 -59 115 -9 0
-101 -27 -206 -60z"/>
<path d="M4375 2532 c-16 -3 -261 -66 -519 -133 -46 -12 -40 -19 37 -48 32
-12 72 -28 88 -37 28 -14 41 -12 247 42 119 31 220 58 224 61 7 4 -28 81 -49
108 -4 6 -17 9 -28 7z"/>
<path d="M4332 2255 c-74 -24 -136 -45 -138 -48 -3 -2 28 -24 68 -47 87 -51
185 -119 250 -173 l48 -39 -7 34 c-4 18 -18 96 -33 173 -19 102 -30 140 -40
142 -8 0 -75 -18 -148 -42z"/>
<path d="M3665 1800 c-126 -26 -311 -64 -410 -85 -99 -20 -322 -66 -495 -101
-173 -36 -412 -85 -530 -109 -118 -24 -435 -89 -705 -145 -269 -55 -572 -118
-673 -138 -100 -20 -178 -38 -173 -40 5 -2 364 56 798 128 433 72 1163 193
1620 268 458 76 835 140 837 143 3 2 2 32 -1 67 -5 49 -9 62 -22 61 -9 0 -119
-22 -246 -49z"/>
<path d="M4720 1642 c0 -31 3 -114 7 -184 6 -118 7 -127 27 -131 12 -2 84 -21
161 -41 162 -42 235 -56 235 -47 0 4 -15 12 -32 19 -51 18 -150 86 -207 143
-29 28 -50 53 -48 55 2 2 69 -25 148 -60 229 -101 359 -139 359 -104 0 45
-341 268 -572 372 l-78 35 0 -57z"/>
<path d="M6418 1408 c-102 -112 -182 -204 -177 -206 20 -8 193 101 273 172 16
14 31 24 34 21 7 -7 -54 -122 -95 -177 -19 -27 -33 -48 -31 -48 3 0 38 11 78
25 40 14 80 25 87 25 11 0 12 -33 7 -182 -7 -212 -18 -250 -92 -305 -82 -62
-72 -61 -902 -65 l-755 -3 -27 157 c-14 87 -39 195 -54 240 l-28 83 -7 -60
c-4 -33 -9 -140 -12 -238 -2 -98 -8 -181 -12 -185 -3 -4 -248 -7 -543 -7
l-536 0 -3 45 c-7 99 -36 255 -64 344 -80 258 -252 356 -394 225 -84 -77 -128
-227 -147 -494 -6 -88 -12 -161 -13 -163 -1 -1 -234 -9 -516 -17 -283 -8 -671
-19 -864 -25 -192 -5 -398 -10 -456 -10 l-106 0 -7 97 c-11 163 -48 304 -94
356 -20 22 -64 22 -85 -1 -50 -55 -87 -216 -87 -379 0 -50 -4 -94 -8 -97 -4
-2 -94 -6 -199 -7 -106 -1 -198 -6 -205 -11 -10 -6 -4 -16 22 -39 l35 -31 175
4 174 3 8 -40 c4 -22 18 -66 29 -98 12 -32 20 -60 17 -62 -2 -2 -140 -11 -306
-18 -693 -32 -279 -42 1748 -42 1576 0 3548 15 4539 34 l334 6 -75 43 -74 42
-608 0 -608 0 20 33 c11 17 28 60 38 95 l17 62 146 0 c339 1 559 69 622 193
63 122 65 388 8 752 -12 72 -24 136 -28 143 -5 9 -69 -54 -193 -190z m-3062
-333 c83 -83 119 -320 71 -475 l-14 -45 -7 60 c-21 174 -55 283 -95 305 -29
15 -68 -4 -114 -53 l-39 -42 7 40 c13 80 48 176 75 205 36 39 81 40 116 5z
m-2372 -297 c19 -30 32 -98 18 -98 -6 0 -14 5 -17 10 -10 17 -51 11 -69 -9 -9
-10 -26 -41 -37 -67 l-20 -49 4 70 c7 126 78 210 121 143z m4076 -350 c12 -35
31 -75 41 -89 10 -14 16 -29 13 -32 -3 -3 -164 -6 -357 -6 -194 0 -488 -4
-655 -7 l-302 -7 24 54 c14 30 28 71 31 92 7 37 7 37 59 38 28 1 242 5 476 8
234 4 475 8 536 9 l111 2 23 -62z m-3138 -15 c7 -43 31 -97 54 -124 13 -14 3
-17 -107 -22 -67 -4 -236 -7 -375 -7 l-253 0 24 45 c13 25 29 70 36 100 l12
55 301 -2 300 -3 8 -42z m1188 -27 c16 -38 36 -76 45 -86 8 -9 15 -20 15 -23
0 -4 -180 -7 -401 -7 -220 0 -399 3 -397 8 55 110 68 141 68 160 l0 22 321 -2
320 -3 29 -69z"/>
<path d="M638 1173 c7 -3 16 -2 19 1 4 3 -2 6 -13 5 -11 0 -14 -3 -6 -6z"/>
<path d="M4105 971 l-320 -26 0 -40 0 -40 85 3 c179 7 692 41 697 46 3 2 2 23
-2 45 l-7 41 -66 -1 c-37 -1 -211 -13 -387 -28z"/>
<path d="M2730 863 c-25 -2 -272 -19 -550 -38 -278 -20 -604 -42 -725 -51
-121 -8 -225 -17 -232 -19 -6 -2 -9 -13 -6 -26 7 -25 -56 -26 513 11 162 10
490 31 728 47 l432 28 0 27 c0 28 -1 28 -57 26 -32 -1 -78 -3 -103 -5z"/>
<path d="M555 693 c-27 -2 -54 -9 -60 -14 -6 -6 23 -9 84 -7 65 2 96 7 99 16
4 12 -13 13 -123 5z"/>
</g>
</svg>
